<svg width="24" height="24" viewBox="0 0 24 24" fill="none" xmlns="http://www.w3.org/2000/svg">
<g clip-path="url(#clip0_14_83)">
<path d="M17.4748 4.5C15.5276 4.5 13.4306 4.9 11.9827 6C10.5348 4.9 8.43782 4.5 6.49062 4.5C5.04271 4.5 3.50492 4.72 2.21678 5.29C1.48783 5.62 0.998535 6.33 0.998535 7.14V18.42C0.998535 19.72 2.21678 20.68 3.47497 20.36C4.45356 20.11 5.49206 20 6.49062 20C8.04838 20 9.70599 20.26 11.0441 20.92C11.6432 21.22 12.3222 21.22 12.9114 20.92C14.2494 20.25 15.9071 20 17.4648 20C18.4634 20 19.5019 20.11 20.4805 20.36C21.7387 20.69 22.9569 19.73 22.9569 18.42V7.14C22.9569 6.33 22.4676 5.62 21.7387 5.29C20.4605 4.72 18.9227 4.5 17.4748 4.5ZM20.9698 17.23C20.9698 17.86 20.3906 18.32 19.7715 18.21C19.0226 18.07 18.2437 18.01 17.4748 18.01C15.7772 18.01 13.3308 18.66 11.9827 19.51V8C13.3308 7.15 15.7772 6.5 17.4748 6.5C18.3935 6.5 19.3022 6.59 20.1709 6.78C20.6302 6.88 20.9698 7.29 20.9698 7.76V17.23Z" fill="url(#paint0_linear_14_83)"/>
<path d="M13.9599 11.01C13.6403 11.01 13.3508 10.81 13.2509 10.49C13.1211 10.1 13.3408 9.66998 13.7302 9.54998C15.268 9.04998 17.2551 8.88998 19.0825 9.09998C19.4919 9.14998 19.7915 9.51998 19.7416 9.92998C19.6916 10.34 19.3222 10.64 18.9127 10.59C17.2951 10.4 15.5276 10.55 14.1896 10.98C14.1097 10.99 14.0298 11.01 13.9599 11.01Z" fill="url(#paint1_linear_14_83)"/>
<path d="M13.9599 13.67C13.6403 13.67 13.3508 13.47 13.2509 13.15C13.1211 12.76 13.3408 12.33 13.7302 12.21C15.258 11.71 17.2551 11.55 19.0825 11.76C19.4919 11.81 19.7915 12.18 19.7416 12.59C19.6916 13 19.3222 13.3 18.9127 13.25C17.2951 13.06 15.5276 13.21 14.1896 13.64C14.1097 13.66 14.0298 13.67 13.9599 13.67Z" fill="url(#paint2_linear_14_83)"/>
<path d="M13.9599 16.33C13.6403 16.33 13.3508 16.13 13.2509 15.81C13.1211 15.42 13.3408 14.99 13.7302 14.87C15.258 14.37 17.2551 14.21 19.0825 14.42C19.4919 14.47 19.7915 14.84 19.7416 15.25C19.6916 15.66 19.3222 15.95 18.9127 15.91C17.2951 15.72 15.5276 15.87 14.1896 16.3C14.1097 16.32 14.0298 16.33 13.9599 16.33Z" fill="url(#paint3_linear_14_83)"/>
</g>
<defs>
<linearGradient id="paint0_linear_14_83" x1="11.9777" y1="4.5" x2="11.9777" y2="21.145" gradientUnits="userSpaceOnUse">
<stop stop-color="#5E97EC"/>
<stop offset="1" stop-color="#2A67DD"/>
</linearGradient>
<linearGradient id="paint1_linear_14_83" x1="16.4802" y1="9.00989" x2="16.4802" y2="11.01" gradientUnits="userSpaceOnUse">
<stop stop-color="#5E97EC"/>
<stop offset="1" stop-color="#2A67DD"/>
</linearGradient>
<linearGradient id="paint2_linear_14_83" x1="16.4802" y1="11.6699" x2="16.4802" y2="13.67" gradientUnits="userSpaceOnUse">
<stop stop-color="#5E97EC"/>
<stop offset="1" stop-color="#2A67DD"/>
</linearGradient>
<linearGradient id="paint3_linear_14_83" x1="16.4802" y1="14.33" x2="16.4802" y2="16.33" gradientUnits="userSpaceOnUse">
<stop stop-color="#5E97EC"/>
<stop offset="1" stop-color="#2A67DD"/>
</linearGradient>
<clipPath id="clip0_14_83">
<rect width="23.9655" height="24" fill="white"/>
</clipPath>
</defs>
</svg>
