<svg width="126" height="35" viewBox="0 0 126 35" fill="none" xmlns="http://www.w3.org/2000/svg">
<path d="M25.752 34H15.72L6.12 8.224C6.44 10.752 6.68 12.992 6.84 14.944C7.032 16.864 7.128 19.152 7.128 21.808V34H0.12V0.735999H9.912L19.752 26.56C19.048 22.176 18.696 18.048 18.696 14.176V0.735999H25.752V34ZM54.0281 20.752C54.0281 21.808 53.9801 22.72 53.8841 23.488H38.0921C38.3481 25.632 38.9561 27.136 39.9161 28C40.8761 28.864 42.2041 29.296 43.9001 29.296C44.9241 29.296 45.9161 29.12 46.8761 28.768C47.8361 28.384 48.8761 27.808 49.9961 27.04L53.1161 31.264C50.1401 33.632 46.8281 34.816 43.1801 34.816C39.0521 34.816 35.8841 33.6 33.6761 31.168C31.4681 28.736 30.3641 25.472 30.3641 21.376C30.3641 18.784 30.8281 16.464 31.7561 14.416C32.6841 12.336 34.0441 10.704 35.8361 9.52C37.6281 8.304 39.7721 7.696 42.2681 7.696C45.9481 7.696 48.8281 8.848 50.9081 11.152C52.9881 13.456 54.0281 16.656 54.0281 20.752ZM46.5881 18.592C46.5241 14.688 45.1481 12.736 42.4601 12.736C41.1481 12.736 40.1241 13.216 39.3881 14.176C38.6841 15.136 38.2521 16.72 38.0921 18.928H46.5881V18.592ZM67.2645 7.696C69.0885 7.696 70.8005 7.968 72.4005 8.512C74.0005 9.056 75.4085 9.824 76.6245 10.816L73.8405 15.088C71.7605 13.776 69.6645 13.12 67.5525 13.12C66.5605 13.12 65.7925 13.296 65.2485 13.648C64.7365 13.968 64.4805 14.432 64.4805 15.04C64.4805 15.52 64.5925 15.92 64.8165 16.24C65.0725 16.528 65.5685 16.832 66.3045 17.152C67.0405 17.472 68.1765 17.856 69.7125 18.304C72.3685 19.072 74.3365 20.08 75.6165 21.328C76.9285 22.544 77.5845 24.24 77.5845 26.416C77.5845 28.144 77.0885 29.648 76.0965 30.928C75.1045 32.176 73.7445 33.136 72.0165 33.808C70.2885 34.48 68.3685 34.816 66.2565 34.816C64.1125 34.816 62.1125 34.48 60.2565 33.808C58.4325 33.136 56.8805 32.208 55.6005 31.024L59.2965 26.896C61.4405 28.56 63.6965 29.392 66.0645 29.392C67.2165 29.392 68.1125 29.184 68.7525 28.768C69.4245 28.352 69.7605 27.76 69.7605 26.992C69.7605 26.384 69.6325 25.904 69.3765 25.552C69.1205 25.2 68.6245 24.88 67.8885 24.592C67.1525 24.272 65.9845 23.888 64.3845 23.44C61.8565 22.704 59.9685 21.68 58.7205 20.368C57.4725 19.056 56.8485 17.424 56.8485 15.472C56.8485 14 57.2645 12.688 58.0965 11.536C58.9605 10.352 60.1765 9.424 61.7445 8.752C63.3445 8.048 65.1845 7.696 67.2645 7.696ZM92.5316 7.696C94.2916 7.696 95.8756 7.952 97.2836 8.464C98.6916 8.976 100.02 9.76 101.268 10.816L98.0036 15.328C96.4036 14.112 94.7876 13.504 93.1556 13.504C91.4596 13.504 90.1796 14.128 89.3156 15.376C88.4516 16.624 88.0196 18.64 88.0196 21.424C88.0196 24.112 88.4516 26.016 89.3156 27.136C90.1796 28.256 91.4276 28.816 93.0596 28.816C93.9236 28.816 94.7076 28.688 95.4116 28.432C96.1156 28.144 96.9636 27.696 97.9556 27.088L101.268 31.792C98.7396 33.808 95.8756 34.816 92.6756 34.816C90.0836 34.816 87.8436 34.272 85.9556 33.184C84.0676 32.064 82.6116 30.512 81.5876 28.528C80.5636 26.512 80.0516 24.16 80.0516 21.472C80.0516 18.784 80.5636 16.4 81.5876 14.32C82.6116 12.24 84.0676 10.624 85.9556 9.472C87.8436 8.288 90.0356 7.696 92.5316 7.696ZM125.747 20.752C125.747 21.808 125.699 22.72 125.603 23.488H109.811C110.067 25.632 110.675 27.136 111.635 28C112.595 28.864 113.923 29.296 115.619 29.296C116.643 29.296 117.635 29.12 118.595 28.768C119.555 28.384 120.595 27.808 121.715 27.04L124.835 31.264C121.859 33.632 118.547 34.816 114.899 34.816C110.771 34.816 107.603 33.6 105.395 31.168C103.187 28.736 102.083 25.472 102.083 21.376C102.083 18.784 102.547 16.464 103.475 14.416C104.403 12.336 105.763 10.704 107.555 9.52C109.347 8.304 111.491 7.696 113.987 7.696C117.667 7.696 120.547 8.848 122.627 11.152C124.707 13.456 125.747 16.656 125.747 20.752ZM118.307 18.592C118.243 14.688 116.867 12.736 114.179 12.736C112.867 12.736 111.843 13.216 111.107 14.176C110.403 15.136 109.971 16.72 109.811 18.928H118.307V18.592Z" fill="#141414"/>
</svg>
