<svg width="38" height="38" viewBox="0 0 38 38" fill="none" xmlns="http://www.w3.org/2000/svg">
<path d="M19 3.16675C10.26 3.16675 3.16663 10.2601 3.16663 19.0001C3.16663 27.7401 10.26 34.8334 19 34.8334C27.74 34.8334 34.8333 27.7401 34.8333 19.0001C34.8333 10.2601 27.74 3.16675 19 3.16675ZM11.1941 28.9434C11.875 27.5184 16.0233 26.1251 19 26.1251C21.9766 26.1251 26.1408 27.5184 26.8058 28.9434C24.6525 30.6534 21.945 31.6668 19 31.6668C16.055 31.6668 13.3475 30.6534 11.1941 28.9434ZM29.07 26.6476C26.8058 23.8926 21.3116 22.9584 19 22.9584C16.6883 22.9584 11.1941 23.8926 8.92996 26.6476C7.31496 24.5259 6.33329 21.8818 6.33329 19.0001C6.33329 12.0176 12.0175 6.33342 19 6.33342C25.9825 6.33342 31.6666 12.0176 31.6666 19.0001C31.6666 21.8818 30.685 24.5259 29.07 26.6476ZM19 9.50008C15.9283 9.50008 13.4583 11.9701 13.4583 15.0417C13.4583 18.1134 15.9283 20.5834 19 20.5834C22.0716 20.5834 24.5416 18.1134 24.5416 15.0417C24.5416 11.9701 22.0716 9.50008 19 9.50008ZM19 17.4167C17.6858 17.4167 16.625 16.3559 16.625 15.0417C16.625 13.7276 17.6858 12.6667 19 12.6667C20.3141 12.6667 21.375 13.7276 21.375 15.0417C21.375 16.3559 20.3141 17.4167 19 17.4167Z" fill="url(#paint0_linear_34_124)"/>
<defs>
<linearGradient id="paint0_linear_34_124" x1="19" y1="3.16675" x2="19" y2="34.8334" gradientUnits="userSpaceOnUse">
<stop stop-color="#5E97EC"/>
<stop offset="1" stop-color="#2A67DD"/>
</linearGradient>
</defs>
</svg>
