<svg width="26" height="34" viewBox="0 0 26 34" fill="none" xmlns="http://www.w3.org/2000/svg">
<path d="M12.9999 0.25C12.1949 0.25 11.3724 0.32 10.5499 0.495C5.71994 1.4225 1.86994 5.325 0.959942 10.155C0.119942 14.7225 1.79994 18.9225 4.84494 21.635C5.59744 22.3 5.99994 23.2275 5.99994 24.2075V28.25C5.99994 30.175 7.57494 31.75 9.49994 31.75H9.98994C10.6024 32.8 11.7049 33.5 12.9999 33.5C14.2949 33.5 15.4149 32.8 16.0099 31.75H16.4999C18.4249 31.75 19.9999 30.175 19.9999 28.25V24.2075C19.9999 23.245 20.3849 22.3 21.1199 21.6525C23.6574 19.4125 25.2499 16.14 25.2499 12.5C25.2499 5.7275 19.7724 0.25 12.9999 0.25ZM16.4999 24.75H9.49994V23H16.4999V24.75ZM9.49994 28.25V26.5H16.4999V28.25H9.49994ZM18.7924 19.045C18.6349 19.185 18.5124 19.36 18.3724 19.5H7.60994C7.46994 19.3425 7.34744 19.1675 7.18994 19.0275C4.87994 16.9625 3.84744 13.8825 4.40744 10.8025C5.03744 7.4075 7.83744 4.59 11.2149 3.925C11.8099 3.8025 12.4049 3.75 12.9999 3.75C17.8299 3.75 21.7499 7.67 21.7499 12.5C21.7499 15.0025 20.6824 17.3825 18.7924 19.045Z" fill="#1648C9"/>
<path d="M13.875 14.25H12.125V19.5H13.875V14.25Z" fill="#1648C9"/>
<path d="M10.1641 10.529L8.92664 11.7664L12.6389 15.4787L13.8763 14.2413L10.1641 10.529Z" fill="#1648C9"/>
<path d="M12.1267 14.2591L13.3641 15.4965L17.0764 11.7842L15.839 10.5468L12.1267 14.2591Z" fill="#1648C9"/>
</svg>
